<svg width="120" height="30" viewBox="0 0 120 30" fill="none" xmlns="http://www.w3.org/2000/svg">
<path opacity="0.2" d="M30 15C30 23.2843 23.2843 30 15 30C6.71573 30 0 23.2843 0 15C0 6.71573 6.71573 0 15 0C23.2843 0 30 6.71573 30 15ZM5.82206 15C5.82206 20.0688 9.93116 24.1779 15 24.1779C20.0688 24.1779 24.1779 20.0688 24.1779 15C24.1779 9.93116 20.0688 5.82206 15 5.82206C9.93116 5.82206 5.82206 9.93116 5.82206 15Z" fill="#D1D5DB"/>
<path d="M26.0711 10.1448C27.5434 9.499 29.2914 10.1687 29.641 11.738C30.151 14.0272 30.1201 16.4181 29.5323 18.7165C28.7025 21.9612 26.8107 24.8349 24.1583 26.8797C21.5059 28.9246 18.2454 30.0229 14.8964 29.9997C11.5473 29.9766 8.30233 28.8333 5.67841 26.752C3.0545 24.6708 1.20259 21.7712 0.417721 18.5153C-0.367143 15.2595 -0.0398086 11.8346 1.34757 8.78629C2.73496 5.73804 5.10257 3.24177 8.07323 1.69519C10.1775 0.599673 12.4986 0.0253092 14.8438 0.00086707C16.4515 -0.0158877 17.5014 1.53374 17.2078 3.11441C16.9142 4.69509 15.3716 5.68978 13.7782 5.90381C12.7321 6.04432 11.7109 6.36517 10.7618 6.8593C8.94413 7.8056 7.49547 9.33297 6.64659 11.1981C5.7977 13.0632 5.59741 15.1588 6.07764 17.1509C6.55787 19.1431 7.69099 20.9172 9.29647 22.1907C10.9019 23.4641 12.8874 24.1637 14.9366 24.1778C16.9857 24.192 18.9807 23.52 20.6036 22.2688C22.2265 21.0177 23.3841 19.2594 23.8918 17.274C24.1569 16.2374 24.2369 15.1699 24.1356 14.1193C23.9813 12.519 24.5987 10.7905 26.0711 10.1448Z" fill="#5750F1"/>
<path d="M48.5141 24.6565H45L51.9751 5.34351H55.4361L62.4111 24.6565H58.8441L57.2851 20.1915H50.0731L48.5141 24.6565ZM53.2691 11.103L51.0761 17.3382H56.3081L54.0881 11.103C53.9301 10.6011 53.7451 10.0198 53.6921 9.62356C53.6131 9.99345 53.4541 10.5746 53.2691 11.103Z" fill="white"/>
<path d="M68.3341 25C64.5561 25 62.2051 22.2259 62.2051 18.1836C62.2051 14.1149 64.5831 11.2087 68.5191 11.2087C70.3421 11.2087 71.9541 11.9749 72.7731 13.2695V5H75.9701V24.6565H73.0111L72.7991 22.6222C72.0071 24.1281 70.3161 25 68.3341 25ZM69.0481 22.041C71.2931 22.041 72.7461 20.4293 72.7461 18.0779C72.7461 15.7266 71.2931 14.0885 69.0481 14.0885C66.8021 14.0885 65.4281 15.753 65.4281 18.0779C65.4281 20.4029 66.8021 22.041 69.0481 22.041Z" fill="white"/>
<path d="M81.7591 24.6565H78.5361V11.605H81.4951L81.7591 13.1374C82.4201 12.0542 83.7411 11.2087 85.6171 11.2087C87.5981 11.2087 88.9721 12.1863 89.6591 13.6922C90.3191 12.1863 91.8521 11.2087 93.8331 11.2087C97.0041 11.2087 98.7471 13.111 98.7471 16.1229V24.6565H95.5511V16.9683C95.5511 15.0925 94.5471 14.1149 93.0141 14.1149C91.4551 14.1149 90.2671 15.1189 90.2671 17.2589V24.6565H87.0431V16.9419C87.0431 15.1189 86.0661 14.1413 84.5331 14.1413C83.0011 14.1413 81.7591 15.1453 81.7591 17.2589V24.6565Z" fill="white"/>
<path d="M102.731 8.98946C101.621 8.98946 100.749 8.1176 100.749 7.03438C100.749 5.95115 101.621 5.10571 102.731 5.10571C103.787 5.10571 104.659 5.95115 104.659 7.03438C104.659 8.1176 103.787 8.98946 102.731 8.98946ZM101.119 24.6565V11.605H104.342V24.6565H101.119Z" fill="white"/>
<path d="M110.103 24.6565H106.88V11.605H109.865L110.129 13.2959C110.949 11.9749 112.534 11.2087 114.304 11.2087C117.58 11.2087 119.271 13.2431 119.271 16.6248V24.6565H116.048V17.391C116.048 15.1982 114.964 14.1413 113.3 14.1413C111.318 14.1413 110.103 15.5152 110.103 17.6288V24.6565Z" fill="white"/>
</svg>
