<svg width="58" height="52" viewBox="0 0 58 52" fill="none" xmlns="http://www.w3.org/2000/svg">
<path d="M8.47094 51.288C7.08002 51.288 6.32241 51.288 4.58002 50.9919C3.13889 50.7471 3.54003 50.8719 2.08002 49.9919C1.54003 49.3719 0.580017 48.3026 0.580017 47.4919C0.580017 45.7853 0.64135 45.5159 1.58002 44.4919C2.58002 43.4919 3.08002 43.4919 4.58002 43.48H6.076L13.5 13.5C12.1773 14.8227 9.73067 16 7 16C5.63467 16 3.68667 16.28 2.62 15C1.55334 13.8053 0.170667 13.2067 0 11.5C9.58002 8.99194 14.58 2.99194 24 0L26.58 1.99194L27.58 4.49194L19.324 43.48C22.08 44 32.58 43.4919 34.08 44.4919C35.58 45.4919 41.08 45.9919 45.08 44.9919C49.08 43.9919 40.58 49.4919 38.58 49.9919C37.08 50.4919 23.2493 51.544 21.372 51.544C17.5747 51.544 16.8347 51.1626 13.08 50.9919L8.47094 51.288Z" fill="#5750F1"/>
<path d="M21.58 42.5287L29.5979 4.08679C34.3115 3.69023 38.1863 3.49194 41.2222 3.49194C44.2581 3.49194 46.7547 3.63074 48.712 3.90833C50.6694 4.14627 52.3072 4.60232 53.6254 5.27648C56.2618 6.54548 57.58 8.92487 57.58 12.4146C57.58 14.4371 56.7012 16.301 54.9436 18.0062C53.3058 19.5528 51.5881 20.5045 49.7906 20.8614C51.708 21.1787 53.3458 22.0511 54.7039 23.4788C56.142 24.9857 56.861 26.9091 56.861 29.2488C56.861 33.7696 55.1633 37.3585 51.7679 40.0155C48.3725 42.6328 42.6602 45.7818 36.6683 43.9415C32.3467 42.064 26.733 43.1236 21.58 42.5287ZM35.3501 39.5991C35.7096 39.6388 35.9293 39.6586 36.0092 39.6586H36.5485C39.8241 39.6586 42.1609 38.5879 43.559 36.4464C44.5976 34.7808 45.1169 32.4213 45.1169 29.3677C45.1169 27.7418 44.5776 26.4927 43.4991 25.6202C42.4605 24.7478 40.7428 24.2719 38.3461 24.1926L35.3501 39.5991ZM47.4537 12.4741C47.4537 9.18263 45.8559 7.53689 42.6602 7.53689H42.121C41.9612 7.53689 41.7614 7.55672 41.5218 7.59638L39.125 20.1476H39.7242C44.8772 20.0287 47.4537 17.4708 47.4537 12.4741Z" fill="#5750F1"/>
</svg>
