<svg width="121" height="30" viewBox="0 0 121 30" fill="none" xmlns="http://www.w3.org/2000/svg">
<path d="M30 15C30 23.2843 23.2843 30 15 30C6.71573 30 0 23.2843 0 15C0 6.71573 6.71573 0 15 0C23.2843 0 30 6.71573 30 15ZM5.82206 15C5.82206 20.0688 9.93116 24.1779 15 24.1779C20.0688 24.1779 24.1779 20.0688 24.1779 15C24.1779 9.93116 20.0688 5.82206 15 5.82206C9.93116 5.82206 5.82206 9.93116 5.82206 15Z" fill="#E5E7EB"/>
<path d="M26.0711 10.1448C27.5434 9.499 29.2914 10.1687 29.641 11.738C30.151 14.0272 30.1201 16.4181 29.5323 18.7165C28.7025 21.9612 26.8107 24.8349 24.1583 26.8797C21.5059 28.9246 18.2454 30.0229 14.8964 29.9997C11.5473 29.9766 8.30233 28.8333 5.67841 26.752C3.0545 24.6708 1.20259 21.7712 0.417721 18.5153C-0.367143 15.2595 -0.0398086 11.8346 1.34757 8.78629C2.73496 5.73804 5.10257 3.24177 8.07323 1.69519C10.1775 0.599673 12.4986 0.0253092 14.8438 0.00086707C16.4515 -0.0158877 17.5014 1.53374 17.2078 3.11441C16.9142 4.69509 15.3716 5.68978 13.7782 5.90381C12.7321 6.04432 11.7109 6.36517 10.7618 6.8593C8.94413 7.8056 7.49547 9.33297 6.64659 11.1981C5.7977 13.0632 5.59741 15.1588 6.07764 17.1509C6.55787 19.1431 7.69099 20.9172 9.29647 22.1907C10.9019 23.4641 12.8874 24.1637 14.9366 24.1778C16.9857 24.192 18.9807 23.52 20.6036 22.2688C22.2265 21.0177 23.3841 19.2594 23.8918 17.274C24.1569 16.2374 24.2369 15.1699 24.1356 14.1193C23.9813 12.519 24.5987 10.7905 26.0711 10.1448Z" fill="#5750F1"/>
<path d="M49.5141 24.6565H46L52.9751 5.34351H56.4361L63.4111 24.6565H59.8441L58.2851 20.1915H51.0731L49.5141 24.6565ZM54.2691 11.103L52.0761 17.3382H57.3081L55.0881 11.103C54.9301 10.6011 54.7451 10.0198 54.6921 9.62356C54.6131 9.99345 54.4541 10.5746 54.2691 11.103Z" fill="#111928"/>
<path d="M69.3341 25C65.5561 25 63.2051 22.2259 63.2051 18.1836C63.2051 14.1149 65.5831 11.2087 69.5191 11.2087C71.3421 11.2087 72.9541 11.9749 73.7731 13.2695V5H76.9701V24.6565H74.0111L73.7991 22.6222C73.0071 24.1281 71.3161 25 69.3341 25ZM70.0481 22.041C72.2931 22.041 73.7461 20.4293 73.7461 18.0779C73.7461 15.7266 72.2931 14.0885 70.0481 14.0885C67.8021 14.0885 66.4281 15.753 66.4281 18.0779C66.4281 20.4029 67.8021 22.041 70.0481 22.041Z" fill="#111928"/>
<path d="M82.7591 24.6565H79.5361V11.605H82.4951L82.7591 13.1374C83.4201 12.0542 84.7411 11.2087 86.6171 11.2087C88.5981 11.2087 89.9721 12.1863 90.6591 13.6922C91.3191 12.1863 92.8521 11.2087 94.8331 11.2087C98.0041 11.2087 99.7471 13.111 99.7471 16.1229V24.6565H96.5511V16.9683C96.5511 15.0925 95.5471 14.1149 94.0141 14.1149C92.4551 14.1149 91.2671 15.1189 91.2671 17.2589V24.6565H88.0431V16.9419C88.0431 15.1189 87.0661 14.1413 85.5331 14.1413C84.0011 14.1413 82.7591 15.1453 82.7591 17.2589V24.6565Z" fill="#111928"/>
<path d="M103.731 8.98946C102.621 8.98946 101.749 8.1176 101.749 7.03438C101.749 5.95115 102.621 5.10571 103.731 5.10571C104.787 5.10571 105.659 5.95115 105.659 7.03438C105.659 8.1176 104.787 8.98946 103.731 8.98946ZM102.119 24.6565V11.605H105.342V24.6565H102.119Z" fill="#111928"/>
<path d="M111.103 24.6565H107.88V11.605H110.865L111.129 13.2959C111.949 11.9749 113.534 11.2087 115.304 11.2087C118.58 11.2087 120.271 13.2431 120.271 16.6248V24.6565H117.048V17.391C117.048 15.1982 115.964 14.1413 114.3 14.1413C112.318 14.1413 111.103 15.5152 111.103 17.6288V24.6565Z" fill="#111928"/>
</svg>
